<?xml version="1.0" encoding="UTF-8"?>
<svg id="Layer_1" data-name="Layer 1" xmlns="http://www.w3.org/2000/svg" viewBox="0 0 49 12">
  <defs>
    <style>
      .cls-1 {
        fill: #fff;
      }

      .cls-2 {
        fill: #2aafbb;
      }
    </style>
  </defs>
  <rect class="cls-2" x="1.25" y="1" width="10" height="10" rx="1.15" ry="1.15"/>
  <g>
    <path class="cls-2" d="m16.89,6.35h-1.51v.65h2.39c0,.12-.02.23-.05.32-.04.09-.09.16-.15.22-.07.06-.14.1-.23.13-.09.03-.18.04-.28.04h-1.75c-.1,0-.19-.02-.27-.05-.08-.03-.16-.08-.22-.14-.06-.06-.12-.14-.15-.22-.04-.09-.06-.19-.06-.29v-2.01c0-.1.02-.2.06-.29.04-.09.09-.16.15-.22.06-.06.14-.11.22-.15.09-.04.18-.05.27-.05h1.76c.22,0,.39.06.52.19s.2.3.2.54h-2.39v.64h1.51v.73Z"/>
    <path class="cls-2" d="m22.13,4.42c0,.15-.02.26-.07.34-.05.08-.1.13-.17.17-.07.03-.14.05-.21.06-.07,0-.14.01-.19.01h-.55v2c0,.26-.04.44-.12.55s-.23.17-.45.17h-.23v-2.72h-1.22v-.1c0-.24.05-.41.14-.49s.23-.13.41-.13h2.66v.15Z"/>
    <path class="cls-2" d="m25.67,7.71v-1.35h-1.6v1.35h-.79v-2.74c0-.1.02-.19.06-.28.04-.08.09-.16.15-.22.06-.06.14-.11.22-.15.09-.04.18-.05.27-.05h.08v1.37h1.61v-1.37h.79v3.44h-.79Z"/>
    <path class="cls-2" d="m28.31,7.71c-.09,0-.18-.02-.27-.05-.09-.03-.16-.08-.23-.14-.06-.06-.12-.14-.15-.22s-.06-.19-.06-.29v-2.72h.79v3.44h-.08Z"/>
    <path class="cls-2" d="m32.73,7.01c0,.12-.02.23-.06.31-.04.08-.09.16-.15.21-.06.06-.14.1-.23.13-.09.03-.18.04-.28.04h-1.75c-.1,0-.19-.02-.27-.05s-.16-.08-.23-.14c-.06-.06-.12-.14-.15-.22-.04-.08-.05-.18-.05-.29v-2.03c0-.1.02-.2.05-.28s.09-.16.15-.23c.07-.06.14-.11.23-.14.08-.03.18-.05.27-.05h1.75c.21,0,.39.06.52.18.13.12.2.3.2.53v2.03Zm-.79-2.02h-1.6v2.01h1.6v-2.01Z"/>
    <path class="cls-2" d="m38.21,7.71v-1.35h-1.6v.54c0,.17-.02.3-.05.39-.03.09-.09.17-.16.23-.07.06-.15.11-.24.14-.09.03-.19.05-.29.05h-.05v-2.68c0-.13.02-.25.06-.34s.09-.17.16-.23c.07-.06.14-.11.23-.14s.18-.04.27-.04h2.48v3.44h-.8Zm0-2.72h-1.6v.64h1.6v-.64Z"/>
    <path class="cls-2" d="m42.45,7.71l-1.13-2.09h1.23v-.64h-1.61v1.9c0,.32-.07.54-.2.66-.07.06-.15.1-.24.12-.09.02-.18.03-.27.03h-.08v-3.42h2.46c.22,0,.4.06.53.19s.19.3.19.54v.65c0,.22-.06.39-.18.51s-.29.19-.5.21l.76,1.35h-.96Z"/>
    <path class="cls-2" d="m47.78,4.42c0,.15-.02.26-.07.34-.05.08-.1.13-.17.17-.07.03-.14.05-.21.06-.07,0-.14.01-.19.01h-.55v2c0,.26-.04.44-.12.55s-.23.17-.45.17h-.23v-2.72h-1.22v-.1c0-.24.05-.41.14-.49.1-.09.23-.13.41-.13h2.66v.15Z"/>
  </g>
  <path class="cls-1" d="m5.13,6.54c0-.14.12-.26.26-.26h2.79v-.55h-2.82c-.13,0-.23-.1-.23-.23v-1.14h3.87s-.35-.35-.91-.54c-.22-.08-.46-.11-.69-.11h-2.43c-.19,0-.36.02-.53.07s-.31.12-.44.2c-.13.08-.23.18-.3.3-.07.12-.11.25-.11.39v2.72c0,.15.04.28.11.4.07.12.17.22.3.3.13.08.27.15.44.19s.35.07.54.07h2.43c.49,0,.96-.17,1.32-.49.13-.11.21-.2.25-.22h-3.85v-1.11Z"/>
</svg>